<?xml version="1.0" encoding="iso-8859-1"?>
<!-- Generator: Adobe Illustrator 19.0.0, SVG Export Plug-In . SVG Version: 6.00 Build 0)  -->
<svg xmlns="http://www.w3.org/2000/svg" xmlns:xlink="http://www.w3.org/1999/xlink" version="1.1" id="Capa_1" x="0px" y="0px" viewBox="0 0 488 488" style="enable-background:new 0 0 488 488;" xml:space="preserve" width="512px" height="512px">
<g>
	<g>
		<rect x="32" y="64" width="16" height="16" fill="#eff0f8"/>
	</g>
</g>
<g>
	<g>
		<rect x="64" y="64" width="16" height="16" fill="#eff0f8"/>
	</g>
</g>
<g>
	<g>
		<rect x="32" y="32" width="16" height="16" fill="#eff0f8"/>
	</g>
</g>
<g>
	<g>
		<rect x="64" y="32" width="16" height="16" fill="#eff0f8"/>
	</g>
</g>
<g>
	<g>
		<rect x="96" y="64" width="16" height="16" fill="#eff0f8"/>
	</g>
</g>
<g>
	<g>
		<rect x="96" y="32" width="16" height="16" fill="#eff0f8"/>
	</g>
</g>
<g>
	<g>
		<rect x="128" y="64" width="16" height="16" fill="#eff0f8"/>
	</g>
</g>
<g>
	<g>
		<rect x="128" y="32" width="16" height="16" fill="#eff0f8"/>
	</g>
</g>
<g>
	<g>
		<rect x="160" y="64" width="16" height="16" fill="#eff0f8"/>
	</g>
</g>
<g>
	<g>
		<rect x="160" y="32" width="16" height="16" fill="#eff0f8"/>
	</g>
</g>
<g>
	<g>
		<path d="M320,32h-72c-4.424,0-8,3.584-8,8v32c0,4.416,3.576,8,8,8h72c4.424,0,8-3.584,8-8V40C328,35.584,324.424,32,320,32z     M312,64h-56V48h56V64z" fill="#eff0f8"/>
	</g>
</g>
<g>
	<g>
		<rect x="32" y="160" width="16" height="16" fill="#eff0f8"/>
	</g>
</g>
<g>
	<g>
		<rect x="64" y="160" width="16" height="16" fill="#eff0f8"/>
	</g>
</g>
<g>
	<g>
		<rect x="32" y="128" width="16" height="16" fill="#eff0f8"/>
	</g>
</g>
<g>
	<g>
		<rect x="64" y="128" width="16" height="16" fill="#eff0f8"/>
	</g>
</g>
<g>
	<g>
		<rect x="96" y="160" width="16" height="16" fill="#eff0f8"/>
	</g>
</g>
<g>
	<g>
		<rect x="96" y="128" width="16" height="16" fill="#eff0f8"/>
	</g>
</g>
<g>
	<g>
		<rect x="128" y="160" width="16" height="16" fill="#eff0f8"/>
	</g>
</g>
<g>
	<g>
		<rect x="128" y="128" width="16" height="16" fill="#eff0f8"/>
	</g>
</g>
<g>
	<g>
		<rect x="160" y="128" width="16" height="16" fill="#eff0f8"/>
	</g>
</g>
<g>
	<g>
		<rect x="32" y="256" width="16" height="16" fill="#eff0f8"/>
	</g>
</g>
<g>
	<g>
		<rect x="64" y="256" width="16" height="16" fill="#eff0f8"/>
	</g>
</g>
<g>
	<g>
		<rect x="32" y="224" width="16" height="16" fill="#eff0f8"/>
	</g>
</g>
<g>
	<g>
		<rect x="64" y="224" width="16" height="16" fill="#eff0f8"/>
	</g>
</g>
<g>
	<g>
		<rect x="96" y="256" width="16" height="16" fill="#eff0f8"/>
	</g>
</g>
<g>
	<g>
		<rect x="96" y="224" width="16" height="16" fill="#eff0f8"/>
	</g>
</g>
<g>
	<g>
		<rect x="128" y="256" width="16" height="16" fill="#eff0f8"/>
	</g>
</g>
<g>
	<g>
		<rect x="128" y="224" width="16" height="16" fill="#eff0f8"/>
	</g>
</g>
<g>
	<g>
		<rect x="160" y="256" width="16" height="16" fill="#eff0f8"/>
	</g>
</g>
<g>
	<g>
		<path d="M480.688,405.376L387.312,312l56-56H456c3.272,0,6.208-1.992,7.432-5.024l16-40c1.184-2.976,0.496-6.368-1.776-8.632    l-16-16c-2.264-2.272-5.664-2.96-8.624-1.776l-40,16c-3.04,1.224-5.032,4.16-5.032,7.432v12.688l-48,48V216    c0-6.168-2.408-11.744-6.24-16c3.84-4.256,6.24-9.832,6.24-16v-64c0-6.168-2.408-11.744-6.24-16c3.84-4.256,6.24-9.832,6.24-16V24    c0-13.232-10.768-24-24-24H24C10.768,0,0,10.768,0,24v64c0,6.168,2.408,11.744,6.24,16C2.408,108.256,0,113.832,0,120v64    c0,6.168,2.408,11.744,6.24,16C2.408,204.256,0,209.832,0,216v64c0,13.232,10.768,24,24,24h268.688l-10.344,10.344    C280.84,315.84,280,317.88,280,320v8h-8c-2.128,0-4.16,0.84-5.656,2.344l-88,88c-3.128,3.128-3.128,8.184,0,11.312l56,56    c1.56,1.56,3.608,2.344,5.656,2.344c2.048,0,4.096-0.784,5.656-2.344l88-88C335.16,396.16,336,394.12,336,392v-8h8    c2.128,0,4.16-0.84,5.656-2.344L368,363.312l77.376,77.376c4.648,4.648,11.08,7.312,17.656,7.312C476.8,448,488,436.8,488,423.032    C488,416.36,485.408,410.088,480.688,405.376z M421.656,229.656C423.16,228.16,424,226.12,424,224v-10.584l30.072-12.032    l8.536,8.536L450.584,240H440c-2.128,0-4.16,0.84-5.656,2.344L376,300.688L363.312,288L421.656,229.656z M16,24    c0-4.408,3.584-8,8-8h312c4.416,0,8,3.592,8,8v64c0,4.408-3.584,8-8,8H24c-4.416,0-8-3.592-8-8V24z M16,120c0-4.408,3.584-8,8-8    h312c4.416,0,8,3.592,8,8v64c0,4.408-3.584,8-8,8h-32v-24c0-2.12-0.84-4.16-2.344-5.656l-32-32C268.16,128.84,266.128,128,264,128    h-48c-3.232,0-6.16,1.952-7.392,4.936c-1.24,2.992-0.552,6.432,1.736,8.72L248,179.312V208h-28.688l-37.656-37.656    c-2.288-2.288-5.72-2.968-8.72-1.736c-2.992,1.24-4.936,4.16-4.936,7.392v16H24c-4.416,0-8-3.592-8-8V120z M344,216v52.688l-40-40    V208h32C340.416,208,344,211.592,344,216z M24,288c-4.416,0-8-3.592-8-8v-64c0-4.408,3.584-8,8-8h144v16    c0,2.12,0.84,4.16,2.344,5.656l32,32C203.84,263.16,205.872,264,208,264h60.688l24,24H24z M340.688,368H328c-4.424,0-8,3.584-8,8    v12.688l-80,80L195.312,424l80-80H288c4.424,0,8-3.584,8-8v-12.688l16-16L356.688,352L340.688,368z M463.032,432    c-2.36,0-4.672-0.96-6.344-2.624l-83.032-83.032l-56-56l-40-40C276.16,248.84,274.128,248,272,248h-60.688L184,220.688V208h12.688    l13.656,13.656C211.84,223.16,213.872,224,216,224h40c4.424,0,8-3.584,8-8v-40c0-2.12-0.84-4.16-2.344-5.656L235.312,144h25.376    L288,171.312V200v32c0,2.12,0.84,4.16,2.344,5.656l54.56,54.56l1.44,1.44l24,24l99.032,99.032    c1.696,1.696,2.624,3.944,2.624,6.344C472,427.976,467.976,432,463.032,432z" fill="#eff0f8"/>
	</g>
</g>
<g>
	<g>
		<rect x="231.706" y="412.022" transform="matrix(0.7071 -0.7071 0.7071 0.7071 -220.8522 306.859)" width="56.559" height="16" fill="#eff0f8"/>
	</g>
</g>
<g>
	<g>
		<rect x="284.679" y="375.985" transform="matrix(0.7071 -0.7071 0.7071 0.7071 -184.8245 321.7639)" width="22.624" height="16" fill="#eff0f8"/>
	</g>
</g>
<g>
</g>
<g>
</g>
<g>
</g>
<g>
</g>
<g>
</g>
<g>
</g>
<g>
</g>
<g>
</g>
<g>
</g>
<g>
</g>
<g>
</g>
<g>
</g>
<g>
</g>
<g>
</g>
<g>
</g>
</svg>
