<?xml version="1.0" encoding="iso-8859-1"?>
<!-- Generator: Adobe Illustrator 19.0.0, SVG Export Plug-In . SVG Version: 6.00 Build 0)  -->
<svg xmlns="http://www.w3.org/2000/svg" xmlns:xlink="http://www.w3.org/1999/xlink" version="1.1" id="Capa_1" x="0px" y="0px" viewBox="0 0 512 512" style="enable-background:new 0 0 512 512;" xml:space="preserve" width="512px" height="512px">
<g>
	<g>
		<g>
			<path d="M469.333,304.228V74.667C469.333,25.646,351.281,0,234.667,0S0,25.646,0,74.667v320     c0,49.021,118.052,74.667,234.667,74.667c22.592,0,45.146-1.117,67.243-3.082C323.388,494.017,356.928,512,394.667,512     C459.365,512,512,459.365,512,394.667C512,358.31,495.376,325.767,469.333,304.228z M234.667,21.333     C364.896,21.333,448,52.917,448,74.667S364.896,128,234.667,128S21.333,96.417,21.333,74.667S104.438,21.333,234.667,21.333z      M21.333,107.682c39.161,27.44,126.6,41.651,213.333,41.651S408.839,135.122,448,107.682v73.651     c0,21.75-83.104,53.333-213.333,53.333S21.333,203.083,21.333,181.333V107.682z M234.667,448     c-130.229,0-213.333-31.583-213.333-53.333v-73.651c39.161,27.44,126.6,41.651,213.333,41.651     c16.152,0,32.017-0.645,47.629-1.604c-3.193,10.656-4.962,21.923-4.962,33.604c0,18.342,4.35,35.647,11.887,51.125     C271.197,447.121,252.973,448,234.667,448z M234.667,341.333c-130.229,0-213.333-31.583-213.333-53.333v-73.651     C60.495,241.789,147.934,256,234.667,256S408.839,241.789,448,214.349v75.938c-16.023-8.22-34.121-12.953-53.333-12.953     c-44.617,0-83.482,25.04-103.319,61.799C272.944,340.529,253.967,341.333,234.667,341.333z M394.667,490.667     c-52.938,0-96-43.063-96-96s43.063-96,96-96s96,43.063,96,96S447.604,490.667,394.667,490.667z" fill="#5c6bc0"/>
			<path d="M394.667,320c-5.896,0-10.667,4.771-10.667,10.667V416c0,5.896,4.771,10.667,10.667,10.667s10.667-4.771,10.667-10.667     v-85.333C405.333,324.771,400.563,320,394.667,320z" fill="#5c6bc0"/>
			<circle cx="394.667" cy="458.667" r="10.667" fill="#5c6bc0"/>
		</g>
	</g>
</g>
<g>
</g>
<g>
</g>
<g>
</g>
<g>
</g>
<g>
</g>
<g>
</g>
<g>
</g>
<g>
</g>
<g>
</g>
<g>
</g>
<g>
</g>
<g>
</g>
<g>
</g>
<g>
</g>
<g>
</g>
</svg>
